<?xml version="1.0" encoding="UTF-8"?>
<svg xmlns="http://www.w3.org/2000/svg" xmlns:xlink="http://www.w3.org/1999/xlink" width="192pt" height="192pt" viewBox="0 0 192 192" version="1.1">
<g id="surface1">
<rect x="0" y="0" width="192" height="192" style="fill:rgb(93.333333%,93.333333%,93.333333%);fill-opacity:1;stroke:none;"/>
<path style=" stroke:none;fill-rule:nonzero;fill:rgb(0%,0%,0%);fill-opacity:1;" d="M 156.488281 110.582031 L 146.132812 68.640625 C 145.410156 64.027344 140.925781 55.578125 128.90625 55.578125 C 128.109375 55.578125 127.34375 55.890625 126.78125 56.441406 C 126.21875 56.996094 125.902344 57.742188 125.902344 58.527344 C 125.902344 59.308594 126.21875 60.054688 126.78125 60.609375 C 127.34375 61.160156 128.109375 61.472656 128.90625 61.472656 C 138.621094 61.472656 140.0625 68.800781 140.203125 69.605469 L 149.738281 108.304688 L 145.550781 108.304688 C 145.117188 104.929688 143.945312 101.683594 142.113281 98.792969 C 140.28125 95.90625 137.832031 93.441406 134.9375 91.566406 C 134.027344 91.941406 133.253906 92.570312 132.707031 93.375 C 132.164062 94.175781 131.871094 95.121094 131.871094 96.085938 C 131.882812 96.253906 131.882812 96.425781 131.871094 96.597656 C 134.304688 98.234375 136.304688 100.421875 137.699219 102.976562 C 139.09375 105.527344 139.84375 108.375 139.882812 111.269531 C 139.871094 112.257812 139.777344 113.242188 139.601562 114.214844 C 138.949219 118.390625 136.789062 122.195312 133.523438 124.945312 C 130.253906 127.691406 126.089844 129.203125 121.785156 129.203125 C 117.480469 129.203125 113.316406 127.691406 110.050781 124.945312 C 106.78125 122.195312 104.625 118.390625 103.96875 114.214844 C 103.792969 113.242188 103.699219 112.257812 103.6875 111.269531 C 103.71875 108.542969 104.371094 105.859375 105.589844 103.414062 C 104.578125 103.34375 103.628906 102.898438 102.9375 102.167969 C 102.246094 101.4375 101.863281 100.480469 101.863281 99.484375 C 101.867188 99.125 101.734375 98.78125 101.484375 98.519531 C 99.546875 101.488281 98.320312 104.84375 97.898438 108.34375 L 94.171875 108.34375 C 93.535156 102.566406 90.742188 97.222656 86.332031 93.339844 C 81.921875 89.460938 76.203125 87.3125 70.277344 87.3125 C 64.351562 87.3125 58.632812 89.460938 54.222656 93.339844 C 49.8125 97.222656 47.019531 102.566406 46.382812 108.34375 L 42.234375 108.34375 L 51.789062 69.605469 C 51.910156 68.800781 53.410156 61.472656 63.085938 61.472656 C 63.882812 61.472656 64.648438 61.160156 65.210938 60.609375 C 65.773438 60.054688 66.089844 59.308594 66.089844 58.527344 C 66.089844 57.742188 65.773438 56.996094 65.210938 56.441406 C 64.648438 55.890625 63.882812 55.578125 63.085938 55.578125 C 51.066406 55.578125 46.582031 64.027344 45.859375 68.640625 L 35.484375 110.582031 C 35.355469 111.007812 35.332031 111.460938 35.417969 111.898438 C 35.503906 112.335938 35.695312 112.746094 35.976562 113.09375 C 36.257812 113.445312 36.617188 113.722656 37.03125 113.910156 C 37.445312 114.09375 37.894531 114.179688 38.347656 114.15625 L 46.359375 114.15625 C 46.523438 115.371094 46.777344 116.574219 47.121094 117.753906 C 47.25 117.535156 47.316406 117.292969 47.324219 117.046875 C 47.324219 116.003906 47.746094 115.003906 48.496094 114.265625 C 49.246094 113.53125 50.265625 113.117188 51.328125 113.117188 C 51.652344 113.121094 51.976562 113.167969 52.289062 113.253906 C 52.203125 112.570312 52.15625 111.882812 52.148438 111.191406 C 52.15625 110.203125 52.242188 109.21875 52.410156 108.246094 C 53.050781 104.058594 55.203125 100.238281 58.476562 97.472656 C 61.746094 94.710938 65.921875 93.191406 70.238281 93.191406 C 74.554688 93.191406 78.726562 94.710938 82 97.472656 C 85.269531 100.238281 87.421875 104.058594 88.0625 108.246094 C 88.230469 109.21875 88.320312 110.203125 88.324219 111.191406 C 88.292969 115.871094 86.382812 120.351562 83.011719 123.660156 C 79.636719 126.96875 75.070312 128.839844 70.296875 128.871094 C 66.390625 128.921875 62.574219 127.730469 59.421875 125.472656 C 58.699219 126.089844 57.773438 126.429688 56.816406 126.433594 C 56.421875 126.441406 56.046875 126.597656 55.765625 126.871094 C 55.488281 127.148438 55.335938 127.519531 55.335938 127.910156 C 55.328125 128.457031 55.207031 129 54.972656 129.5 C 59.257812 132.984375 64.652344 134.886719 70.21875 134.882812 C 76.097656 134.90625 81.78125 132.816406 86.195312 129.007812 C 90.609375 125.203125 93.449219 119.9375 94.171875 114.214844 L 97.820312 114.214844 C 98.480469 119.976562 101.28125 125.296875 105.6875 129.160156 C 110.09375 133.023438 115.796875 135.15625 121.707031 135.15625 C 127.617188 135.15625 133.320312 133.023438 137.726562 129.160156 C 142.132812 125.296875 144.933594 119.976562 145.589844 114.214844 L 153.605469 114.214844 C 154.066406 114.25 154.53125 114.167969 154.957031 113.984375 C 155.378906 113.800781 155.75 113.515625 156.035156 113.15625 C 156.320312 112.796875 156.511719 112.375 156.589844 111.925781 C 156.667969 111.476562 156.632812 111.015625 156.488281 110.582031 Z M 156.488281 110.582031 "/>
</g>
</svg>
